<?xml version="1.0" encoding="utf-8"?><svg version="1.1" id="Layer_1" xmlns="http://www.w3.org/2000/svg" xmlns:xlink="http://www.w3.org/1999/xlink" x="0px" y="0px" width="119.828px" height="122.88px" viewBox="0 0 119.828 122.88" enable-background="new 0 0 119.828 122.88" xml:space="preserve"><g><path d="M29.459,52.052c-2.062,0-3.734-1.671-3.734-3.733c0-2.062,1.672-3.733,3.734-3.733h37.719c2.063,0,3.732,1.672,3.732,3.733 c0,2.062-1.67,3.733-3.732,3.733H29.459L29.459,52.052z M48.318,0C61.66,0,73.74,5.408,82.484,14.152s14.152,20.824,14.152,34.166 c0,12.808-4.984,24.451-13.117,33.098c0.148,0.109,0.291,0.23,0.424,0.364l34.787,34.737c1.457,1.449,1.465,3.807,0.014,5.265 c-1.449,1.458-3.807,1.464-5.264,0.015L78.693,87.06c-0.221-0.22-0.408-0.46-0.561-0.715c-8.213,6.447-18.565,10.292-29.814,10.292 c-13.342,0-25.422-5.408-34.167-14.152C5.408,73.74,0,61.661,0,48.318c0-13.342,5.408-25.422,14.152-34.166 C22.896,5.408,34.976,0,48.318,0L48.318,0z M77.082,19.555C69.721,12.193,59.551,7.641,48.318,7.641 c-11.233,0-21.403,4.553-28.764,11.914c-7.361,7.36-11.914,17.53-11.914,28.764s4.553,21.403,11.914,28.764 c7.361,7.361,17.531,11.914,28.764,11.914c11.233,0,21.402-4.553,28.764-11.914c7.361-7.36,11.914-17.53,11.914-28.764 S84.443,26.915,77.082,19.555L77.082,19.555z"/></g></svg>