<?xml version="1.0" encoding="UTF-8" standalone="no"?>
<!DOCTYPE svg PUBLIC "-//W3C//DTD SVG 1.1//EN" "http://www.w3.org/Graphics/SVG/1.1/DTD/svg11.dtd">
<svg width="100%" height="100%" viewBox="0 0 123 115" version="1.1" xmlns="http://www.w3.org/2000/svg" xmlns:xlink="http://www.w3.org/1999/xlink" xml:space="preserve" xmlns:serif="http://www.serif.com/" style="fill-rule:evenodd;clip-rule:evenodd;stroke-linejoin:round;stroke-miterlimit:2;">
    <g transform="matrix(1,0,0,1,-930.518,-1078.58)">
        <g id="soldier-army.svg" transform="matrix(1,0,0,1,991.958,1136.06)">
            <g transform="matrix(1,0,0,1,-61.44,-57.48)">
                <g>
                    <path d="M48.25,0L74.5,0C88.99,0 92.34,22.95 96.53,34.49L88.09,34.49L87.9,42.26C88.99,42.62 89.78,43.26 90.26,44.23C91.11,45.95 90.74,48.58 89.06,52.4C89.04,52.45 89.01,52.5 88.98,52.55L82.7,62.9C78.83,69.27 74.74,73.81 70.54,76.46C67.67,78.26 64.75,79.19 61.79,79.23C58.83,79.27 55.88,78.41 52.97,76.64C48.9,74.17 44.9,69.91 41.06,63.79L35.55,55.02C33.56,52.05 32.52,49.35 32.46,47.14C32.43,46.12 32.6,45.2 32.98,44.39C33.37,43.55 33.97,42.84 34.78,42.3C35.14,42.06 35.54,41.85 35.99,41.67C35.82,39.48 35.7,37 35.64,34.48L26.36,34.48C30.49,22.97 33.79,0 48.25,0ZM40.5,78.32C46.33,95.48 76.9,96.11 82.38,78.32C88.83,84.12 104.8,85.29 111.9,89.24C114.14,90.49 116.17,92.09 117.8,94.24C120.28,97.51 121.79,101.78 122.21,107.2L122.88,114.96L0,114.96L0.67,107.2C1.08,101.78 2.6,97.51 5.08,94.24C6.71,92.09 8.74,90.49 10.98,89.24C18.08,85.28 34.05,84.12 40.5,78.32ZM83.92,44.55C83.38,44.63 82.83,44.64 82.27,44.6L84.11,35.28C80.43,35.23 77.13,35 74.04,34.5L40.03,34.5L41.24,44.07C40.19,44.28 39.18,44.18 38.21,43.77C37.38,43.89 36.71,44.12 36.2,44.46C35.8,44.73 35.5,45.08 35.31,45.49C35.1,45.94 35.01,46.47 35.03,47.09C35.08,48.82 35.97,51.06 37.7,53.63L43.24,62.43C46.87,68.2 50.58,72.19 54.31,74.45C56.8,75.96 59.3,76.7 61.77,76.66C64.24,76.63 66.72,75.83 69.18,74.28C73.05,71.85 76.86,67.59 80.51,61.57L86.73,51.32C88.06,48.28 88.45,46.37 87.96,45.39C87.57,44.59 86.27,44.37 84.16,44.56C84.07,44.56 84,44.56 83.92,44.55Z"/>
                </g>
            </g>
        </g>
        <g transform="matrix(0.800503,0.800503,-0.800503,0.800503,1124,-602.775)">
            <path d="M1033.72,1125.72L1038.34,1130.34L1032.61,1136.06L1038.34,1141.79L1033.72,1146.4L1028,1140.67L1022.28,1146.4L1017.66,1141.79L1023.39,1136.06L1017.66,1130.34L1022.28,1125.72L1028,1131.45L1033.72,1125.72Z"/>
        </g>
    </g>
</svg>
