<?xml version="1.0" encoding="utf-8"?><svg version="1.1" id="Layer_1" xmlns="http://www.w3.org/2000/svg" xmlns:xlink="http://www.w3.org/1999/xlink" x="0px" y="0px" viewBox="0 0 122.88 114.96" style="enable-background:new 0 0 122.88 114.96" xml:space="preserve"><style type="text/css">.st0{fill-rule:evenodd;clip-rule:evenodd;}</style><g><path class="st0" d="M48.25,0H74.5c14.49,0,17.84,22.95,22.03,34.49h-8.44l-0.19,7.77c1.09,0.36,1.88,1,2.36,1.97 c0.85,1.72,0.48,4.35-1.2,8.17l0,0c-0.02,0.05-0.05,0.1-0.08,0.15L82.7,62.9c-3.87,6.37-7.96,10.91-12.16,13.56 c-2.87,1.8-5.79,2.73-8.75,2.77c-2.96,0.04-5.91-0.82-8.82-2.59c-4.07-2.47-8.07-6.73-11.91-12.85l-5.51-8.77 c-1.99-2.97-3.03-5.67-3.09-7.88c-0.03-1.02,0.14-1.94,0.52-2.75c0.39-0.84,0.99-1.55,1.8-2.09c0.36-0.24,0.76-0.45,1.21-0.63 c-0.17-2.19-0.29-4.67-0.35-7.19h-9.28C30.49,22.97,33.79,0,48.25,0L48.25,0z M40.5,78.32c5.83,17.16,36.4,17.79,41.88,0 c6.45,5.8,22.42,6.97,29.52,10.92c2.24,1.25,4.27,2.85,5.9,5c2.48,3.27,3.99,7.54,4.41,12.96l0.67,7.76H0l0.67-7.76 c0.41-5.42,1.93-9.69,4.41-12.96c1.63-2.15,3.66-3.75,5.9-5C18.08,85.28,34.05,84.12,40.5,78.32L40.5,78.32z M83.92,44.55 c-0.54,0.08-1.09,0.09-1.65,0.05l1.84-9.32c-3.68-0.05-6.98-0.28-10.07-0.78H40.03l1.21,9.57c-1.05,0.21-2.06,0.11-3.03-0.3 c-0.83,0.12-1.5,0.35-2.01,0.69c-0.4,0.27-0.7,0.62-0.89,1.03c-0.21,0.45-0.3,0.98-0.28,1.6c0.05,1.73,0.94,3.97,2.67,6.54 l5.54,8.8c3.63,5.77,7.34,9.76,11.07,12.02c2.49,1.51,4.99,2.25,7.46,2.21c2.47-0.03,4.95-0.83,7.41-2.38 c3.87-2.43,7.68-6.69,11.33-12.71l6.22-10.25c1.33-3.04,1.72-4.95,1.23-5.93c-0.39-0.8-1.69-1.02-3.8-0.83 C84.07,44.56,84,44.56,83.92,44.55L83.92,44.55z"/></g></svg>